# xmcd
#
# Track frame offsets:
#	150
#	28824
#	56966
#	80855
#	113851
#	160398
#	184990
#	218784
#	240921
#	257797
#	275349
#	296825
#
# Disc length: 4168
#
# Revision: 1
# Processed by: cddbd v1.5.1PL0 Copyright (c) Steve Scherf et al.
# Submitted via: EasyCDDAExtractor 5.0.5.1
# Normalized: r0:DSETVAR1
#
DISCID=ba10460c
DTITLE=Various Artist - DEE JAY MIX CLUB 2003 PART 6
DYEAR=2003
DGENRE=Acapella
TTITLE0=CAPTAIN G.Q. - HERE I COME 2003
TTITLE1=MANDY and RANDY - NOTHING'S GONNA STOP US NOW
TTITLE2=MAGIC BOX - IF YOU
TTITLE3=BAD BOYS BLUE - LOVER ON THE LINE
TTITLE4=SYNTAX - PRAY
TTITLE5=SYLVER - WHY WORRY(RMX)
TTITLE6=FIRST CHOICE - AIN'T IT BAD(RMX)
TTITLE7=RSDJ - SORRY
TTITLE8=MOBY - SUNDAY (RMX)
TTITLE9=DAVID GRAY - BE MINE
TTITLE10=SHANIA TWAIN - FOREVER AND FOR ALWAYS
TTITLE11=LUTRICIA MCNEAL - WRONG OR RIGHT (RMX)
EXTD=
EXTT0=
EXTT1=
EXTT2=
EXTT3=
EXTT4=
EXTT5=
EXTT6=
EXTT7=
EXTT8=
EXTT9=
EXTT10=
EXTT11=
PLAYORDER=
